<svg xmlns="http://www.w3.org/2000/svg" width="90.816" height="612.314" viewBox="0 0 90.816 612.314">
  <g id="Group_349" data-name="Group 349" transform="translate(3015.315 -5880)">
    <path id="Subtraction_5" data-name="Subtraction 5" d="M90.816,612.314H0V107.449c3.723.773,7.578,1.664,11.208,2.509l1.167.273h0l.02,0,.007,0c5.718,1.333,11.118,2.593,16.406,3.553a84.167,84.167,0,0,0,15.049,1.6,35.034,35.034,0,0,0,11.211-1.609,23.278,23.278,0,0,0,4.815-2.231,21.552,21.552,0,0,0,4.2-3.378A24.677,24.677,0,0,0,67.6,103.5a33.821,33.821,0,0,0,2.763-6.114c.395-1.149.757-2.375,1.079-3.644.325-1.285.616-2.651.865-4.059.253-1.428.469-2.94.644-4.493.177-1.575.316-3.239.414-4.945.1-1.737.158-3.571.175-5.449.017-1.9-.008-3.9-.074-5.944-.068-2.07-.18-4.242-.333-6.457-.155-2.244-.357-4.6-.6-6.99-.591-5.661-1.224-10.607-1.883-14.7a91.918,91.918,0,0,0-1.922-9.37,20.164,20.164,0,0,0-1.9-4.951c-.59-.96-1.2-1.447-1.823-1.447-.759,0-1.544.728-2.333,2.165a26.7,26.7,0,0,0-1.889,4.763c-.8,2.591-1.383,5.2-1.631,6.321v0l0,.011v0c-.082.368-.131.59-.14.59v0c.27-3.429.567-6.677.884-9.653.311-2.923.65-5.662,1.005-8.142.35-2.438.726-4.692,1.118-6.7.385-1.971.8-3.764,1.223-5.328a37.113,37.113,0,0,1,1.32-4.024,15.832,15.832,0,0,1,1.409-2.789C66.905.723,67.932,0,69.015,0a4.369,4.369,0,0,1,2.959,1.585A20.84,20.84,0,0,1,75.1,6.076a67.2,67.2,0,0,1,3.238,7c1.063,2.63,2.177,5.694,3.309,9.106,2.839,8.549,5.925,19.651,9.173,33V612.314h0Z" transform="translate(-3015.315 5880)" fill="#13547a"/>
  </g>
</svg>
