<svg xmlns="http://www.w3.org/2000/svg" width="1104.315" height="1357.081" viewBox="0 0 1104.315 1357.081">
  <g id="Group_349" data-name="Group 349" transform="translate(3015.315 -5879.919)">
    <path id="Subtraction_5" data-name="Subtraction 5" d="M1696.5,916.081H592.5V160.755c45.347,1.159,92.172,2.49,136.247,3.754l14.186.407.049,0,.248.007.08,0c69.5,1.995,135.137,3.879,199.44,5.316,72.865,1.629,131,2.387,182.943,2.387,52.363,0,96.942-.787,136.282-2.407,21.021-.865,40.715-1.988,58.536-3.338,18.581-1.407,35.753-3.108,51.04-5.054,15.874-2.021,30.248-4.374,42.724-6.992a258.323,258.323,0,0,0,33.586-9.147,131.7,131.7,0,0,0,13.111-5.452,79.228,79.228,0,0,0,10.52-6.073,46.706,46.706,0,0,0,7.825-6.722,29.46,29.46,0,0,0,5.029-7.4,23.422,23.422,0,0,0,2.133-8.152,26.958,26.958,0,0,0-.9-8.892,41.774,41.774,0,0,0-4.047-9.66,72.754,72.754,0,0,0-7.291-10.457,148.633,148.633,0,0,0-22.892-22,118.4,118.4,0,0,0-23.367-14.018,108.727,108.727,0,0,0-23.124-7.407,113.116,113.116,0,0,0-22.167-2.166,130,130,0,0,0-28.36,3.24,153.629,153.629,0,0,0-22.962,7.126,166.02,166.02,0,0,0-19.822,9.454l-.007,0-.008.005-.029.017-.011.005a12.757,12.757,0,0,1-1.7.882.022.022,0,0,1-.013,0,125.383,125.383,0,0,1,10.749-14.441,115.19,115.19,0,0,1,25.815-22.206,122.169,122.169,0,0,1,14.868-7.971,135.857,135.857,0,0,1,16.046-6.02,156.931,156.931,0,0,1,17.125-4.173A203.66,203.66,0,0,1,1431.476,0a291.013,291.013,0,0,1,35.968,2.372c12.031,1.509,24.8,3.769,37.949,6.718,12.569,2.82,25.814,6.343,39.369,10.469,12.931,3.938,26.467,8.522,40.231,13.625,34.511,12.792,72.027,29.4,111.505,49.369V916.08h0Z" transform="translate(-3607.815 5879.919)" fill="#13547a"/>
    <rect id="Rectangle_1108" data-name="Rectangle 1108" width="1104" height="441" transform="translate(-3015 6796)" fill="#13547a"/>
  </g>
</svg>
