<svg xmlns="http://www.w3.org/2000/svg" xmlns:xlink="http://www.w3.org/1999/xlink" width="711.469" height="170.857" viewBox="0 0 711.469 170.857">
  <defs>
    <linearGradient id="linear-gradient" x1="0.839" y1="0.163" x2="0" y2="1.163" gradientUnits="objectBoundingBox">
      <stop offset="0" stop-color="#80d0c7"/>
      <stop offset="1" stop-color="#13547a"/>
    </linearGradient>
  </defs>
  <path id="Subtraction_16" data-name="Subtraction 16" d="M711.466,170.858h0c-1.086-.507-2.272-1.033-3.525-1.563a205.391,205.391,0,0,0-25.354-8.468c-12.431-3.393-27.146-6.59-43.734-9.5-13.375-2.347-21.709-6.381-25.479-12.331a17.362,17.362,0,0,1-2.358-10.944,62.1,62.1,0,0,1,2.407-11.549l0-.018c1.879-6.841,3.654-13.3.278-17.733-1.515-1.988-3.945-3.442-7.428-4.445-3.817-1.1-8.8-1.634-15.228-1.634a225.018,225.018,0,0,0-28.733,2.3c-29.022,3.836-54.616,5.782-76.072,5.782h-.018c-18.526,0-33.613-1.443-44.84-4.288a53.207,53.207,0,0,1-13.022-4.894,17.971,17.971,0,0,1-6.953-6.313c-2-3.479-1.767-7.369.684-11.562a102.489,102.489,0,0,1,6.9-9.866l.015-.021.008-.01a75.69,75.69,0,0,0,6.25-9.045c1.653-3.081,2.011-5.344,1.129-7.119-.813-1.638-2.684-2.833-5.718-3.655-3.3-.892-7.883-1.326-14.017-1.326-12.989,0-32.79,1.989-60.536,6.079a94.169,94.169,0,0,1-13.581,1.082h-.016a57.616,57.616,0,0,1-11.312-1.038A44.547,44.547,0,0,1,322.3,46.04a70.676,70.676,0,0,1-13.713-8.292l-.01-.007-.216-.156a71.335,71.335,0,0,0-13.424-8.2,42.545,42.545,0,0,0-8.588-2.7,54.057,54.057,0,0,0-10.861-1.02,93.937,93.937,0,0,0-17.475,1.828c-10.739,2.033-21.123,3.588-30.861,4.622a259.623,259.623,0,0,1-27.177,1.554h-.025c-13.619,0-25.049-1.38-33.971-4.1-9.209-2.81-15.585-7.007-18.949-12.474-2.2-3.575-7.646-5.24-17.137-5.24-7.981,0-18.285,1.171-29.195,2.41l-.017,0-.053.006-.448.052-1.244.14-2.241.254c-12.864,1.45-26.561,2.865-40.149,2.865h-.025A125.751,125.751,0,0,1,27.63,14.668a73.124,73.124,0,0,1-12.962-4.295A54.623,54.623,0,0,1,3.3,3.609,13.129,13.129,0,0,1,0,0H711.466Z" transform="translate(0.003 0)" fill="url(#linear-gradient)"/>
</svg>
